<svg width="1024" height="1024" viewBox="0 0 1024 1024" fill="none" xmlns="http://www.w3.org/2000/svg">
<path d="M860.011 383.586H859.136L786.948 364.336L855.198 348.586L860.011 348.149C860.011 348.149 933.073 332.836 922.573 276.836C921.261 268.524 917.761 259.774 912.511 250.149C868.761 170.961 801.823 245.336 801.823 245.336L799.636 247.961L748.886 298.274L770.761 226.086C770.761 226.086 800.948 133.774 712.136 132.024C711.698 132.024 711.261 132.024 710.823 132.024C710.386 132.024 710.386 132.024 710.386 132.024C619.823 130.274 651.323 225.211 651.323 225.211L671.011 298.711L620.698 244.899L619.386 243.586C619.386 243.586 582.636 202.899 545.011 214.711C532.323 218.649 519.636 228.274 508.261 247.086C461.886 324.524 559.886 345.086 559.886 345.086H560.761L632.948 364.336L564.261 380.086L559.448 380.524C559.448 380.524 486.386 395.836 496.886 451.836C498.198 459.711 501.698 468.899 506.948 478.524C550.698 557.711 617.636 483.336 617.636 483.336L619.386 480.711L670.573 429.524L648.698 501.274C648.698 501.274 618.511 593.586 707.323 595.336C707.761 595.336 708.198 595.336 708.636 595.336H709.073C799.636 597.086 768.573 501.711 768.573 501.711L748.886 429.961L798.761 483.336L800.073 485.086C800.073 485.086 831.136 519.211 865.261 516.149C881.011 514.836 897.198 505.649 911.198 481.586C958.011 404.149 860.011 383.586 860.011 383.586Z" fill="#325DCE" style="fill:#325DCE;fill:color(display-p3 0.1953 0.3649 0.8095);fill-opacity:1;"/>
<circle cx="710" cy="363.7" r="49" fill="#FFC932" stroke="black" style="fill:#FFC932;fill:color(display-p3 1.0000 0.7887 0.1952);fill-opacity:1;stroke:black;stroke-opacity:1;" stroke-width="14"/>
<path d="M668 721.4C668 696.26 643.811 675.807 614.08 675.807C605.178 675.807 587.97 677.725 569.262 681.113C584.886 670.28 598.41 659.469 604.705 653.173C625.729 632.151 628.369 600.584 610.593 582.807C592.817 565.03 561.25 567.671 540.227 588.695C533.932 594.99 523.12 608.515 512.288 624.138C515.675 605.43 517.594 588.222 517.594 579.32C517.593 549.589 497.14 525.4 472 525.4C446.86 525.4 426.407 549.589 426.407 579.32C426.407 588.222 428.326 605.431 431.713 624.139C420.879 608.516 410.069 594.991 403.773 588.695H403.773C382.749 567.67 351.183 565.032 333.406 582.807C315.63 600.584 318.271 632.15 339.295 653.173C345.59 659.469 359.114 670.28 374.738 681.113C356.03 677.726 338.822 675.807 329.919 675.807C300.189 675.807 276 696.26 276 721.4C276 746.54 300.189 766.993 329.92 766.993C338.822 766.993 356.031 765.074 374.738 761.687C359.114 772.521 345.59 783.332 339.295 789.627C318.271 810.65 315.63 842.216 333.407 859.993C341.081 867.667 351.765 871.851 363.323 871.851C365.132 871.851 366.964 871.749 368.809 871.541C381.548 870.105 393.966 863.912 403.773 854.104C410.068 847.809 420.879 834.285 431.713 818.661C428.325 837.37 426.406 854.578 426.406 863.48C426.406 893.211 446.859 917.4 471.999 917.4C497.139 917.4 517.592 893.211 517.592 863.48C517.592 854.578 515.673 837.369 512.286 818.661C523.12 834.284 533.931 847.809 540.227 854.104C550.033 863.912 562.451 870.105 575.19 871.541C577.036 871.749 578.867 871.851 580.677 871.851C592.234 871.851 602.919 867.666 610.592 859.993C628.369 842.216 625.728 810.65 604.704 789.627C598.41 783.331 584.885 772.521 569.261 761.687C587.969 765.074 605.177 766.993 614.079 766.993C643.811 766.993 668 746.54 668 721.4Z" fill="#F52E36" style="fill:#F52E36;fill:color(display-p3 0.9594 0.1798 0.2129);fill-opacity:1;"/>
<circle opacity="0.9" cx="472" cy="721.4" r="51.1" fill="#325DCE" stroke="black" style="fill:#325DCE;fill:color(display-p3 0.1961 0.3647 0.8078);fill-opacity:1;stroke:black;stroke-opacity:1;" stroke-width="14"/>
<path d="M416.708 363.774C449.658 344.09 460.819 301.539 441.561 268.186C422.303 234.832 379.874 223.223 346.354 241.918C345.782 203.541 314.513 172.6 276 172.6C237.486 172.6 206.216 203.541 205.646 241.921C172.124 223.226 129.694 234.836 110.437 268.191C91.1807 301.544 102.341 344.095 135.293 363.777C102.341 383.461 91.1807 426.011 110.438 459.365C129.696 492.72 172.126 504.329 205.648 485.633C206.217 524.013 237.488 554.955 276.002 554.953C314.517 554.953 345.785 524.011 346.355 485.633C379.876 504.327 422.308 492.718 441.562 459.361C460.82 426.007 449.658 383.456 416.708 363.774Z" fill="#FFC932" style="fill:#FFC932;fill:color(display-p3 1.0000 0.7887 0.1952);fill-opacity:1;"/>
<circle cx="275.926" cy="363.776" r="67.6983" fill="#325DCE" stroke="black" style="fill:#325DCE;fill:color(display-p3 0.1961 0.3647 0.8078);fill-opacity:1;stroke:black;stroke-opacity:1;" stroke-width="14"/>
</svg>
